PathFileType	4	(X/Y/Z)	c:/Users/goper/Files/vsCode/490R/osim_files/A02/A02_Fast_03.trc
DataRate	CameraRate	NumFrames	NumMarkers	Units                	OrigDataRate	OrigDataStartFrame	OrigNumFrames
250.00	250.00	6	36	mm	250.0	1592	2546
                Frame#	Time	Mobility_markerset:LPSIS			Mobility_markerset:LASIS			Mobility_markerset:LTH1			Mobility_markerset:LTH2			Mobility_markerset:LTH3			Mobility_markerset:LTH4			Mobility_markerset:LLFE			Mobility_markerset:LMFE			Mobility_markerset:LSH1			Mobility_markerset:LSH2			Mobility_markerset:LSH3			Mobility_markerset:LSH4			Mobility_markerset:LLMAL			Mobility_markerset:LMMAL			Mobility_markerset:LCAL			Mobility_markerset:LMTP5			Mobility_markerset:LTOE			Mobility_markerset:LMTP1			Mobility_markerset:RPSIS			Mobility_markerset:RASIS			Mobility_markerset:RTH1			Mobility_markerset:RTH2			Mobility_markerset:RTH3			Mobility_markerset:RTH4			Mobility_markerset:RLFE			Mobility_markerset:RMFE			Mobility_markerset:RSH1			Mobility_markerset:RSH2			Mobility_markerset:RSH3			Mobility_markerset:RSH4			Mobility_markerset:RLMAL			Mobility_markerset:RMMAL			Mobility_markerset:RCAL			Mobility_markerset:RMTP1			Mobility_markerset:RTOE			Mobility_markerset:RMTP5		
		X1	Y1	Z1	X2	Y2	Z2	X3	Y3	Z3	X4	Y4	Z4	X5	Y5	Z5	X6	Y6	Z6	X7	Y7	Z7	X8	Y8	Z8	X9	Y9	Z9	X10	Y10	Z10	X11	Y11	Z11	X12	Y12	Z12	X13	Y13	Z13	X14	Y14	Z14	X15	Y15	Z15	X16	Y16	Z16	X17	Y17	Z17	X18	Y18	Z18	X19	Y19	Z19	X20	Y20	Z20	X21	Y21	Z21	X22	Y22	Z22	X23	Y23	Z23	X24	Y24	Z24	X25	Y25	Z25	X26	Y26	Z26	X27	Y27	Z27	X28	Y28	Z28	X29	Y29	Z29	X30	Y30	Z30	X31	Y31	Z31	X32	Y32	Z32	X33	Y33	Z33	X34	Y34	Z34	X35	Y35	Z35	X36	Y36	Z36

1592	6.36400	-2071.04370	929.10577	283.05252	-2211.32397	886.37732	375.85776	-2072.71997	656.40503	396.73334	0.00000	0.00000	0.00000	-2132.03174	648.19489	412.62149	-2122.60669	605.06531	402.75195	-2072.89526	437.22098	354.12610	-2086.16333	416.00949	238.02635	-1976.12781	395.95981	349.25073	-1953.70032	357.51892	353.91998	-2026.18140	362.51462	354.96707	-1998.01831	327.71387	359.15002	-1857.45850	126.43552	312.49600	-1872.39075	127.57145	228.65129	-1783.32922	123.13018	267.65979	-1924.31311	44.91436	333.78210	-1980.07019	51.26219	269.56918	-1938.00269	34.32897	221.44356	-2081.79907	939.20758	181.47070	-2239.19385	909.38580	125.31489	-2296.28271	571.68524	112.57731	-2323.71094	536.74225	112.61084	-2347.80518	604.43512	110.44847	-2366.79150	565.18787	108.97993	-2393.78589	448.75485	101.15508	-2416.54614	463.09689	233.70903	-2474.93091	280.88663	121.64428	-2501.71118	244.58665	132.26836	-2526.30200	310.81799	115.69012	-2546.89526	268.65497	122.65668	-2580.81567	101.77621	130.73454	-2592.98022	112.92867	214.81410	-2549.50342	58.61049	177.30875	-2717.05615	146.29285	199.93811	-2727.52466	166.76320	163.81281	-2706.34985	138.04924	108.76356
1593	6.36800	-2077.35815	928.22974	282.78250	-2217.62354	885.33270	375.66486	-2077.72119	656.44672	396.65002	0.00000	0.00000	0.00000	-2137.24121	647.73761	412.52069	-2127.26660	604.68524	402.66409	-2076.72607	437.23111	354.40625	-2089.31763	415.85712	237.99051	-1979.42676	396.78809	350.13522	-1956.62561	358.23459	354.09601	-2029.07385	362.72430	355.07422	-2000.71777	328.08710	359.28064	-1858.72803	127.64325	312.86783	-1873.92224	128.71991	229.05070	-1784.75928	125.01753	268.13330	-1925.09424	45.08006	334.11682	-1980.42419	50.94232	269.63733	-1938.16370	34.57441	221.53607	-2088.21411	938.25909	181.46411	-2245.53052	908.34100	125.06765	-2302.28467	570.80261	111.70095	-2329.61475	535.67944	111.82565	-2353.87427	603.36530	110.02834	-2372.77661	563.98499	108.56446	-2399.55322	447.49179	100.69633	-2421.35791	461.44763	233.30249	-2479.90552	279.40372	121.20631	-2506.64795	243.08890	131.70653	-2531.48315	309.25497	115.64058	-2552.03394	266.95920	122.59018	-2585.28906	100.18440	130.50484	-2596.95728	111.17307	214.86848	-2553.28149	57.78866	176.90530	-2721.19849	143.65579	200.61978	-2732.40259	164.38843	164.67209	-2711.38477	135.91768	109.29379
1594	6.37200	-2083.62866	927.53900	282.39771	-2224.32153	884.49286	375.96429	-2083.18335	656.52661	396.67282	0.00000	0.00000	0.00000	-2142.34814	647.38123	412.40472	0.00000	0.00000	0.00000	-2080.16992	437.15311	354.44803	-2092.65405	415.68719	238.01984	-1982.73083	397.51166	350.17188	-1959.72974	359.08737	354.25186	-2032.30054	363.06473	355.23724	-2003.55688	328.57373	359.47119	-1860.30139	128.93564	313.22421	-1875.28198	129.92094	229.47891	-1786.28003	127.46422	268.21021	-1925.54175	45.14573	334.26160	-1980.97437	50.63274	269.74951	-1938.41699	34.87528	221.66945	-2094.56543	937.42554	181.29811	-2251.91064	907.38379	124.98299	-2308.57812	569.76166	110.68422	-2335.35571	534.92139	111.01508	-2359.88623	602.34521	109.57093	-2378.62012	562.89026	108.15081	-2405.16577	446.21085	100.15653	-2425.98682	459.78665	232.89511	-2484.69458	277.94543	120.65741	-2511.27979	240.78519	130.13272	-2536.36597	307.56564	115.51612	-2556.64014	265.23694	122.52598	-2589.17700	99.09766	130.34088	-2600.88062	109.85948	215.17816	-2556.03345	57.79475	176.47308	-2727.02954	140.91667	201.05312	-2736.83838	161.06419	165.54610	-2715.60010	133.13083	110.09446
1595	6.37600	-2090.14478	926.84784	282.20648	-2230.68921	883.67529	375.12289	-2088.57690	656.67542	396.61240	0.00000	0.00000	0.00000	-2147.72168	647.03668	412.35699	0.00000	0.00000	0.00000	0.00000	0.00000	0.00000	-2096.12012	415.65427	238.05653	-1986.00330	398.09702	350.20047	-1962.81396	359.99615	354.45734	-2035.19312	363.31860	355.35049	-2006.58240	329.14270	359.73627	-1861.98486	130.30806	313.63641	-1877.02698	131.21190	229.93105	-1788.10132	129.79465	268.57315	-1926.09131	45.26364	334.39282	-1981.49829	50.32365	269.83325	-1938.63281	35.15884	221.78346	-2101.20044	936.77179	180.84221	-2258.23901	906.50183	125.17405	-2313.83984	569.24084	109.96726	-2340.93774	533.95105	110.21979	-2365.75684	601.42969	109.06642	-2384.23413	561.88232	107.56767	-2410.56982	445.09067	99.61732	-2430.65918	458.40509	232.45447	-2489.07764	276.55798	120.17012	-2515.25464	239.85338	131.09587	-2540.92676	305.87814	115.43420	-2560.89429	263.41165	122.45045	-2592.38159	98.46596	129.74335	-2604.01221	108.84807	214.97519	-2558.29907	57.86954	176.00026	-2729.09546	137.42322	202.27287	-2741.13745	157.04208	166.28560	-2720.09814	129.44250	110.58271
1596	6.38000	-2096.98047	926.15533	282.23914	-2237.40625	883.00024	375.04208	-2094.09937	656.87445	396.53400	0.00000	0.00000	0.00000	-2153.05933	646.80859	412.32062	0.00000	0.00000	0.00000	-2087.67578	437.31964	354.78183	-2099.73999	415.52069	238.18282	-1989.61804	398.99896	350.44687	-1966.03528	360.98102	354.65762	-2038.76270	363.88895	355.68912	-2009.57068	329.86057	359.97992	-1863.79126	131.78273	314.01639	-1878.97046	132.57961	230.36909	-1789.86316	132.29608	268.94028	-1926.60022	45.42455	334.53485	-1981.97363	50.01865	269.88931	-1938.86133	35.39651	221.88249	-2107.35229	936.27960	180.87447	-2264.86743	905.84692	125.13242	-2319.90381	568.66010	108.97250	-2346.41602	533.34113	109.41911	-2371.63403	600.74768	108.60973	-2389.82495	560.97247	107.11514	-2415.56860	444.11206	99.15942	-2435.25488	457.21588	232.00542	-2493.13159	275.06387	119.77053	-2518.94434	238.27950	130.64786	-2545.11475	304.11441	115.32256	-2565.00073	261.52969	122.36586	-2595.31689	97.14133	129.28336	-2606.37573	107.60471	215.16328	-2559.73218	58.06680	175.42110	-2731.90381	133.15608	202.71468	-2744.77295	152.75209	166.81238	-2723.50562	125.23961	111.07054
1597	6.38400	-2103.69019	925.69031	282.07556	-2243.89526	882.37543	374.65518	-2099.49854	657.07147	396.37973	0.00000	0.00000	0.00000	-2158.49097	646.62347	412.28955	-2147.38257	603.93982	402.68875	-2091.68286	437.45618	355.04291	-2103.62378	415.55060	238.40509	-1993.33911	399.96771	350.61960	-1969.48242	361.99796	354.86151	-2041.92737	364.30112	355.83636	-2012.91016	330.60477	360.23764	-1865.60962	133.34810	314.40750	-1880.93372	134.02870	230.85619	-1791.95276	134.95750	269.31204	-1927.02490	45.57333	334.64740	-1982.40918	49.64206	269.98050	-1939.06189	35.72356	221.97157	-2114.15112	935.57617	180.85104	-2271.60205	905.35138	124.87820	-2325.52759	568.37354	108.21150	-2351.81616	532.98999	108.70353	-2377.44995	600.14069	108.07529	-2395.53711	560.39270	106.66354	-2420.49536	443.18912	98.72596	-2439.71924	456.05035	231.57555	-2496.59570	273.64093	119.54000	0.00000	0.00000	0.00000	-2548.87524	302.32962	115.28997	-2568.32666	259.52606	122.42286	-2597.45557	95.50829	129.40108	-2608.29761	106.11730	215.23465	-2561.12622	57.80607	175.51059	-2734.56860	129.16553	203.30396	-2747.79785	148.60680	167.41949	-2725.87109	121.76868	111.57993
